/* XPM */
static char *result[] = {
/* columns rows colors chars-per-pixel */
"40 40 3 1 ",
"  c black",
". c #F4B41B",
"X c white",
/* pixels */
"        ........................        ",
"        ........................        ",
"        ........................        ",
"        ........................        ",
"    ....                        ....    ",
"    ....                        ....    ",
"    ....                        ....    ",
"    ....                        ....    ",
"....        ................        ....",
"....        ................        ....",
"....        ................        ....",
"....        ................        ....",
"....    ....                XXXX    ....",
"....    ....                XXXX    ....",
"....    ....                XXXX    ....",
"....    ....                XXXX    ....",
"....    ....                XXXX    ....",
"....    ....                XXXX    ....",
"....    ....                XXXX    ....",
"....    ....                XXXX    ....",
"....    ....                XXXX    ....",
"....    ....                XXXX    ....",
"....    ....                XXXX    ....",
"....    ....                XXXX    ....",
"....    ....                XXXX    ....",
"....    ....                XXXX    ....",
"....    ....                XXXX    ....",
"....    ....                XXXX    ....",
"....        XXXXXXXXXXXXXXXX        ....",
"....        XXXXXXXXXXXXXXXX        ....",
"....        XXXXXXXXXXXXXXXX        ....",
"....        XXXXXXXXXXXXXXXX        ....",
"    ....                        ....    ",
"    ....                        ....    ",
"    ....                        ....    ",
"    ....                        ....    ",
"        ........................        ",
"        ........................        ",
"        ........................        ",
"        ........................        "
};
