/* XPM */
static char *result[] = {
/* columns rows colors chars-per-pixel */
"60 56 2 1 ",
"  c black",
". c #AC3232",
/* pixels */
"                    ................                ....    ",
"                    ................                ....    ",
"                    ................                ....    ",
"                    ................                ....    ",
"        ....    ........................    ....    ....    ",
"        ....    ........................    ....    ....    ",
"        ....    ........................    ....    ....    ",
"        ....    ........................    ....    ....    ",
"        ........................................    ....    ",
"        ........................................    ....    ",
"        ........................................    ....    ",
"        ........................................    ....    ",
"            ........    ........    ........        ....    ",
"            ........    ........    ........        ....    ",
"            ........    ........    ........        ....    ",
"            ........    ........    ........        ....    ",
"                ....                ....            ....    ",
"                ....                ....            ....    ",
"                ....                ....            ....    ",
"                ....                ....            ....    ",
"                ........        ........            ....    ",
"                ........        ........            ....    ",
"                ........        ........            ....    ",
"                ........        ........            ....    ",
"                                                            ",
"                                                            ",
"                                                            ",
"                                                            ",
"    ................        ................    ............",
"    ................        ................    ............",
"    ................        ................    ............",
"    ................        ................    ............",
"....                ....    ............                    ",
"....                ....    ............                    ",
"....                ....    ............                    ",
"....                ....    ............                    ",
"....    ........    ....    ............        ........    ",
"....    ........    ....    ............        ........    ",
"....    ........    ....    ............        ........    ",
"....    ........    ....    ............        ........    ",
"....    ........    ....                        ........    ",
"....    ........    ....                        ........    ",
"....    ........    ....                        ........    ",
"....    ........    ....                        ........    ",
"....                ....    ................                ",
"....                ....    ................                ",
"....                ....    ................                ",
"....                ....    ................                ",
"    ................                ....                    ",
"    ................                ....                    ",
"    ................                ....                    ",
"    ................                ....                    ",
"                    ....            ....                    ",
"                    ....            ....                    ",
"                    ....            ....                    ",
"                    ....            ....                    "
};
