/* XPM */
static char *result[] = {
/* columns rows colors chars-per-pixel */
"64 56 3 1 ",
"  c black",
". c #5B6EE1",
"X c white",
/* pixels */
"                                                    XXXXXXXX    ",
"                                                    XXXXXXXX    ",
"                                                    XXXXXXXX    ",
"                                                    XXXXXXXX    ",
"        ............................            XXXX    XXXXXXXX",
"        ............................            XXXX    XXXXXXXX",
"        ............................            XXXX    XXXXXXXX",
"        ............................            XXXX    XXXXXXXX",
"    ....................................        XXXX        XXXX",
"    ....................................        XXXX        XXXX",
"    ....................................        XXXX        XXXX",
"    ....................................        XXXX        XXXX",
"    ........    ........        ............        XXXXXXXX    ",
"    ........    ........        ............        XXXXXXXX    ",
"    ........    ........        ............        XXXXXXXX    ",
"    ........    ........        ............        XXXXXXXX    ",
"            ........                ........        XXXX        ",
"            ........                ........        XXXX        ",
"            ........                ........        XXXX        ",
"            ........                ........        XXXX        ",
"            ....    XXXX        XXXX    ....        XXXX        ",
"            ....    XXXX        XXXX    ....        XXXX        ",
"            ....    XXXX        XXXX    ....        XXXX        ",
"            ....    XXXX        XXXX    ....        XXXX        ",
"            ....    XXXX        XXXX    ....            XXXX    ",
"            ....    XXXX        XXXX    ....            XXXX    ",
"            ....    XXXX        XXXX    ....            XXXX    ",
"            ....    XXXX        XXXX    ....            XXXX    ",
"        ........                        ........        XXXX    ",
"        ........                        ........        XXXX    ",
"        ........                        ........        XXXX    ",
"        ........                        ........        XXXX    ",
"    ............                        ............            ",
"    ............                        ............            ",
"    ............                        ............            ",
"    ............                        ............            ",
"    ................    ........    ............    XXXXXXXX    ",
"    ................    ........    ............    XXXXXXXX    ",
"    ................    ........    ............    XXXXXXXX    ",
"    ................    ........    ............    XXXXXXXX    ",
"    ........    ........        ........    ....    XXXXXXXX    ",
"    ........    ........        ........    ....    XXXXXXXX    ",
"    ........    ........        ........    ....    XXXXXXXX    ",
"    ........    ........        ........    ....    XXXXXXXX    ",
"    ........    ........        ........    ........            ",
"    ........    ........        ........    ........            ",
"    ........    ........        ........    ........            ",
"    ........    ........        ........    ........            ",
"    ........    ........        ........    ........    XXXX    ",
"    ........    ........        ........    ........    XXXX    ",
"    ........    ........        ........    ........    XXXX    ",
"    ........    ........        ........    ........    XXXX    ",
"............    ........        ........    ............XXXX    ",
"............    ........        ........    ............XXXX    ",
"............    ........        ........    ............XXXX    ",
"............    ........        ........    ............XXXX    "
};
